<?xml version="1.0" encoding="UTF-8" standalone="no"?>
<!DOCTYPE svg PUBLIC "-//W3C//DTD SVG 1.1//EN" "http://www.w3.org/Graphics/SVG/1.1/DTD/svg11.dtd">
<svg version="1.1" xmlns="http://www.w3.org/2000/svg" xmlns:xlink="http://www.w3.org/1999/xlink" preserveAspectRatio="xMidYMid meet" viewBox="77.08 77.08 488.4800000000002 487.84" width="250" height="249.67"><defs><path d="M160 403.84C161.92 403.84 163.2 402.56 163.2 400.64C163.2 380.86 163.2 222.66 163.2 202.88C163.2 181.12 181.12 163.2 202.88 163.2C222.66 163.2 380.86 163.2 400.64 163.2C402.56 163.2 403.84 161.92 403.84 160C403.84 156.42 403.84 127.74 403.84 124.16C403.84 98.56 383.36 78.08 357.76 78.08C334.4 78.08 147.52 78.08 124.16 78.08C98.56 78.08 78.08 98.56 78.08 124.16C78.08 147.58 78.08 334.98 78.08 358.4C78.08 383.36 98.56 403.84 124.16 403.84C131.33 403.84 156.42 403.84 160 403.84Z" id="aYfnODRdZ"></path><path d="M236.16 515.84C236.16 541.44 256.64 561.92 282.24 561.92C305.66 561.92 493.06 561.92 516.48 561.92C542.08 561.92 562.56 541.44 562.56 515.84C562.56 492.42 562.56 305.02 562.56 281.6C562.56 256 542.08 235.52 516.48 235.52C512.83 235.52 483.65 235.52 480 235.52C478.08 235.52 476.8 236.8 476.8 238.72C476.8 258.5 476.8 416.7 476.8 436.48C476.8 458.24 458.88 476.16 437.12 476.16C417.34 476.16 259.14 476.16 239.36 476.16C237.44 476.8 236.16 478.08 236.16 480C236.16 487.17 236.16 512.26 236.16 515.84Z" id="a1bWc4jZSI"></path><path d="M358.4 403.84C384 403.84 404.48 383.36 404.48 357.76C404.48 345.92 404.48 251.2 404.48 239.36C404.48 237.44 403.2 236.16 401.28 236.16C389.31 236.16 293.57 236.16 281.6 236.16C256 236.16 235.52 256.64 235.52 282.24C235.52 294.14 235.52 389.38 235.52 401.28C236.16 402.56 237.44 403.84 239.36 403.84C263.17 403.84 346.5 403.84 358.4 403.84Z" id="bPplXNVkk"></path></defs><g><g><use xlink:href="#aYfnODRdZ" opacity="1" fill="#ffc201" fill-opacity="1"></use><g><use xlink:href="#aYfnODRdZ" opacity="1" fill-opacity="0" stroke="#000000" stroke-width="1" stroke-opacity="0"></use></g></g><g><use xlink:href="#a1bWc4jZSI" opacity="1" fill="#ffc201" fill-opacity="1"></use><g><use xlink:href="#a1bWc4jZSI" opacity="1" fill-opacity="0" stroke="#000000" stroke-width="1" stroke-opacity="0"></use></g></g><g><use xlink:href="#bPplXNVkk" opacity="1" fill="#ffc201" fill-opacity="1"></use><g><use xlink:href="#bPplXNVkk" opacity="1" fill-opacity="0" stroke="#000000" stroke-width="1" stroke-opacity="0"></use></g></g></g></svg>